<svg xmlns="http://www.w3.org/2000/svg" xmlns:xlink="http://www.w3.org/1999/xlink" width="1200" zoomAndPan="magnify" viewBox="0 0 900 899.99999" height="1200" preserveAspectRatio="xMidYMid meet" version="1.0"><defs><clipPath id="c67c74b01b"><path d="M 0.292969 447 L 301 447 L 301 706.816406 L 0.292969 706.816406 Z M 0.292969 447 " clip-rule="nonzero"/></clipPath><clipPath id="73598258cb"><path d="M 150 193.066406 L 600 193.066406 L 600 706.816406 L 150 706.816406 Z M 150 193.066406 " clip-rule="nonzero"/></clipPath><clipPath id="2884aa2440"><path d="M 449.441406 193.066406 L 899.703125 193.066406 L 899.703125 706.816406 L 449.441406 706.816406 Z M 449.441406 193.066406 " clip-rule="nonzero"/></clipPath></defs><g clip-path="url(#c67c74b01b)"><path fill="#1a2d49" d="M 225.152344 447.203125 L 75.34375 447.203125 L 0.292969 577.199219 L 75.34375 706.921875 L 225.152344 706.921875 L 300.191406 577.199219 L 225.152344 447.203125 " fill-opacity="1" fill-rule="nonzero"/></g><g clip-path="url(#73598258cb)"><path fill="#f0b429" d="M 552.640625 495.195312 L 552.664062 495.183594 L 547.605469 486.433594 L 525.046875 447.203125 L 524.941406 447.203125 L 424.050781 272.558594 L 424.027344 272.582031 L 374.957031 187.757812 L 225.152344 187.757812 L 150.101562 317.480469 L 200.609375 404.789062 L 200.597656 404.789062 L 324.230469 618.925781 L 374.957031 706.921875 L 525.046875 706.921875 L 599.804688 577.199219 L 552.640625 495.195312 " fill-opacity="1" fill-rule="nonzero"/></g><g clip-path="url(#2884aa2440)"><path fill="#1a2d49" d="M 848.726562 488.886719 L 848.933594 488.765625 L 720.605469 266.140625 L 720.308594 266.328125 L 674.855469 187.757812 L 525.046875 187.757812 L 449.996094 317.480469 L 525.046875 447.203125 L 525.09375 447.203125 L 600.035156 576.816406 L 599.804688 577.199219 L 674.855469 706.921875 L 824.664062 706.921875 L 899.703125 577.199219 L 848.726562 488.886719 " fill-opacity="1" fill-rule="nonzero"/></g></svg>