<svg xmlns="http://www.w3.org/2000/svg" xmlns:xlink="http://www.w3.org/1999/xlink" width="1200" zoomAndPan="magnify" viewBox="0 0 900 899.99999" height="1200" preserveAspectRatio="xMidYMid meet" version="1.0"><defs><g/><clipPath id="355ae65cde"><rect x="0" width="900" y="0" height="104"/></clipPath><clipPath id="5d8fe3f0f5"><path d="M 226.554688 287.132812 L 376 287.132812 L 376 416.003906 L 226.554688 416.003906 Z M 226.554688 287.132812 " clip-rule="nonzero"/></clipPath><clipPath id="7b8460e1ba"><path d="M 300.019531 161.003906 L 524.570312 161.003906 L 524.570312 416.003906 L 300.019531 416.003906 Z M 300.019531 161.003906 " clip-rule="nonzero"/></clipPath><clipPath id="f92659818e"><path d="M 449.71875 161.003906 L 673.414062 161.003906 L 673.414062 416.003906 L 449.71875 416.003906 Z M 449.71875 161.003906 " clip-rule="nonzero"/></clipPath></defs><g fill="#f0b429" fill-opacity="1"><g transform="translate(283.490499, 663.939897)"><g><path d="M 15.5625 0.671875 C 12.78125 0.671875 10.382812 0.210938 8.375 -0.703125 C 6.363281 -1.628906 4.8125 -2.9375 3.71875 -4.625 C 2.632812 -6.320312 2.09375 -8.304688 2.09375 -10.578125 L 9.484375 -10.578125 C 9.484375 -8.992188 10.03125 -7.757812 11.125 -6.875 C 12.21875 -5.988281 13.679688 -5.546875 15.515625 -5.546875 C 17.097656 -5.546875 18.347656 -5.851562 19.265625 -6.46875 C 20.179688 -7.09375 20.640625 -7.957031 20.640625 -9.0625 C 20.640625 -10.226562 20.085938 -11.175781 18.984375 -11.90625 C 17.878906 -12.632812 16.15625 -13.253906 13.8125 -13.765625 C 9.914062 -14.585938 7.035156 -15.835938 5.171875 -17.515625 C 3.304688 -19.191406 2.375 -21.375 2.375 -24.0625 C 2.375 -27.09375 3.476562 -29.484375 5.6875 -31.234375 C 7.90625 -32.992188 10.929688 -33.875 14.765625 -33.875 C 17.390625 -33.875 19.664062 -33.421875 21.59375 -32.515625 C 23.519531 -31.617188 25.015625 -30.351562 26.078125 -28.71875 C 27.140625 -27.09375 27.671875 -25.160156 27.671875 -22.921875 L 20.40625 -22.921875 C 20.40625 -24.410156 19.914062 -25.582031 18.9375 -26.4375 C 17.957031 -27.289062 16.597656 -27.71875 14.859375 -27.71875 C 13.273438 -27.71875 12.023438 -27.40625 11.109375 -26.78125 C 10.191406 -26.164062 9.734375 -25.304688 9.734375 -24.203125 C 9.734375 -23.191406 10.238281 -22.335938 11.25 -21.640625 C 12.257812 -20.941406 14.03125 -20.289062 16.5625 -19.6875 C 20.707031 -18.707031 23.695312 -17.394531 25.53125 -15.75 C 27.363281 -14.101562 28.28125 -11.96875 28.28125 -9.34375 C 28.28125 -6.21875 27.148438 -3.765625 24.890625 -1.984375 C 22.628906 -0.210938 19.519531 0.671875 15.5625 0.671875 Z M 15.5625 0.671875 "/></g></g></g><g fill="#f0b429" fill-opacity="1"><g transform="translate(332.89178, 663.939897)"><g><path d="M 11.953125 0 L 11.953125 -26.140625 L 1.421875 -26.140625 L 1.421875 -33.21875 L 30.03125 -33.21875 L 30.03125 -26.140625 L 19.5 -26.140625 L 19.5 0 Z M 11.953125 0 "/></g></g></g><g fill="#f0b429" fill-opacity="1"><g transform="translate(383.336944, 663.939897)"><g><path d="M 17.5625 0.671875 C 14.675781 0.671875 12.195312 0.09375 10.125 -1.0625 C 8.050781 -2.21875 6.453125 -3.863281 5.328125 -6 C 4.210938 -8.132812 3.65625 -10.691406 3.65625 -13.671875 L 3.65625 -33.21875 L 11.203125 -33.21875 L 11.203125 -14.1875 C 11.203125 -9.0625 13.320312 -6.5 17.5625 -6.5 C 21.800781 -6.5 23.921875 -9.0625 23.921875 -14.1875 L 23.921875 -33.21875 L 31.46875 -33.21875 L 31.46875 -13.671875 C 31.46875 -10.691406 30.90625 -8.132812 29.78125 -6 C 28.65625 -3.863281 27.054688 -2.21875 24.984375 -1.0625 C 22.910156 0.09375 20.4375 0.671875 17.5625 0.671875 Z M 17.5625 0.671875 "/></g></g></g><g fill="#f0b429" fill-opacity="1"><g transform="translate(437.435693, 663.939897)"><g><path d="M 3.984375 0 L 3.984375 -33.21875 L 17.125 -33.21875 C 20.632812 -33.21875 23.703125 -32.519531 26.328125 -31.125 C 28.960938 -29.738281 31.003906 -27.796875 32.453125 -25.296875 C 33.910156 -22.796875 34.640625 -19.898438 34.640625 -16.609375 C 34.640625 -13.285156 33.910156 -10.378906 32.453125 -7.890625 C 31.003906 -5.410156 28.960938 -3.472656 26.328125 -2.078125 C 23.703125 -0.691406 20.632812 0 17.125 0 Z M 11.53125 -6.921875 L 16.984375 -6.921875 C 18.953125 -6.921875 20.675781 -7.320312 22.15625 -8.125 C 23.644531 -8.9375 24.804688 -10.070312 25.640625 -11.53125 C 26.484375 -12.988281 26.90625 -14.679688 26.90625 -16.609375 C 26.90625 -18.566406 26.484375 -20.265625 25.640625 -21.703125 C 24.804688 -23.148438 23.640625 -24.273438 22.140625 -25.078125 C 20.640625 -25.878906 18.890625 -26.28125 16.890625 -26.28125 L 11.53125 -26.28125 Z M 11.53125 -6.921875 "/></g></g></g><g fill="#f0b429" fill-opacity="1"><g transform="translate(493.05282, 663.939897)"><g><path d="M 3.984375 0 L 3.984375 -33.21875 L 11.53125 -33.21875 L 11.53125 0 Z M 3.984375 0 "/></g></g></g><g fill="#f0b429" fill-opacity="1"><g transform="translate(527.555062, 663.939897)"><g><path d="M 19.734375 0.671875 C 16.285156 0.671875 13.222656 -0.0625 10.546875 -1.53125 C 7.878906 -3.007812 5.796875 -5.046875 4.296875 -7.640625 C 2.796875 -10.234375 2.046875 -13.222656 2.046875 -16.609375 C 2.046875 -19.992188 2.796875 -22.984375 4.296875 -25.578125 C 5.796875 -28.171875 7.878906 -30.203125 10.546875 -31.671875 C 13.222656 -33.140625 16.285156 -33.875 19.734375 -33.875 C 23.210938 -33.875 26.28125 -33.140625 28.9375 -31.671875 C 31.601562 -30.203125 33.691406 -28.171875 35.203125 -25.578125 C 36.722656 -22.984375 37.484375 -19.992188 37.484375 -16.609375 C 37.484375 -13.222656 36.722656 -10.234375 35.203125 -7.640625 C 33.691406 -5.046875 31.601562 -3.007812 28.9375 -1.53125 C 26.28125 -0.0625 23.210938 0.671875 19.734375 0.671875 Z M 9.734375 -16.609375 C 9.734375 -14.617188 10.160156 -12.863281 11.015625 -11.34375 C 11.867188 -9.820312 13.046875 -8.632812 14.546875 -7.78125 C 16.046875 -6.925781 17.773438 -6.5 19.734375 -6.5 C 21.734375 -6.5 23.484375 -6.925781 24.984375 -7.78125 C 26.484375 -8.632812 27.648438 -9.820312 28.484375 -11.34375 C 29.328125 -12.863281 29.75 -14.617188 29.75 -16.609375 C 29.75 -18.597656 29.328125 -20.351562 28.484375 -21.875 C 27.648438 -23.394531 26.484375 -24.582031 24.984375 -25.4375 C 23.484375 -26.289062 21.734375 -26.71875 19.734375 -26.71875 C 17.773438 -26.71875 16.046875 -26.289062 14.546875 -25.4375 C 13.046875 -24.582031 11.867188 -23.394531 11.015625 -21.875 C 10.160156 -20.351562 9.734375 -18.597656 9.734375 -16.609375 Z M 9.734375 -16.609375 "/></g></g></g><g fill="#f0b429" fill-opacity="1"><g transform="translate(586.066594, 663.939897)"><g><path d="M 15.5625 0.671875 C 12.78125 0.671875 10.382812 0.210938 8.375 -0.703125 C 6.363281 -1.628906 4.8125 -2.9375 3.71875 -4.625 C 2.632812 -6.320312 2.09375 -8.304688 2.09375 -10.578125 L 9.484375 -10.578125 C 9.484375 -8.992188 10.03125 -7.757812 11.125 -6.875 C 12.21875 -5.988281 13.679688 -5.546875 15.515625 -5.546875 C 17.097656 -5.546875 18.347656 -5.851562 19.265625 -6.46875 C 20.179688 -7.09375 20.640625 -7.957031 20.640625 -9.0625 C 20.640625 -10.226562 20.085938 -11.175781 18.984375 -11.90625 C 17.878906 -12.632812 16.15625 -13.253906 13.8125 -13.765625 C 9.914062 -14.585938 7.035156 -15.835938 5.171875 -17.515625 C 3.304688 -19.191406 2.375 -21.375 2.375 -24.0625 C 2.375 -27.09375 3.476562 -29.484375 5.6875 -31.234375 C 7.90625 -32.992188 10.929688 -33.875 14.765625 -33.875 C 17.390625 -33.875 19.664062 -33.421875 21.59375 -32.515625 C 23.519531 -31.617188 25.015625 -30.351562 26.078125 -28.71875 C 27.140625 -27.09375 27.671875 -25.160156 27.671875 -22.921875 L 20.40625 -22.921875 C 20.40625 -24.410156 19.914062 -25.582031 18.9375 -26.4375 C 17.957031 -27.289062 16.597656 -27.71875 14.859375 -27.71875 C 13.273438 -27.71875 12.023438 -27.40625 11.109375 -26.78125 C 10.191406 -26.164062 9.734375 -25.304688 9.734375 -24.203125 C 9.734375 -23.191406 10.238281 -22.335938 11.25 -21.640625 C 12.257812 -20.941406 14.03125 -20.289062 16.5625 -19.6875 C 20.707031 -18.707031 23.695312 -17.394531 25.53125 -15.75 C 27.363281 -14.101562 28.28125 -11.96875 28.28125 -9.34375 C 28.28125 -6.21875 27.148438 -3.765625 24.890625 -1.984375 C 22.628906 -0.210938 19.519531 0.671875 15.5625 0.671875 Z M 15.5625 0.671875 "/></g></g></g><g transform="matrix(1, 0, 0, 1, 0, 489)"><g clip-path="url(#355ae65cde)"><g fill="#1a2d49" fill-opacity="1"><g transform="translate(-1.23841, 82.394494)"><g><path d="M 20.578125 0 L 7.828125 0 C 6.734375 0 6.1875 -0.546875 6.1875 -1.640625 L 6.1875 -60.3125 C 6.1875 -61.332031 6.382812 -62.085938 6.78125 -62.578125 C 7.1875 -63.078125 7.695312 -63.265625 8.3125 -63.140625 C 8.9375 -63.023438 9.566406 -62.550781 10.203125 -61.71875 L 37.296875 -27.640625 L 64.53125 -61.71875 C 65.175781 -62.519531 65.804688 -62.984375 66.421875 -63.109375 C 67.035156 -63.234375 67.539062 -63.050781 67.9375 -62.5625 C 68.34375 -62.082031 68.546875 -61.332031 68.546875 -60.3125 L 68.546875 -1.640625 C 68.546875 -0.546875 68 0 66.90625 0 L 54.171875 0 C 53.066406 0 52.515625 -0.546875 52.515625 -1.640625 L 52.515625 -23.953125 L 38.421875 -7.546875 C 37.671875 -6.640625 36.90625 -6.640625 36.125 -7.546875 L 22.21875 -23.78125 L 22.21875 -1.640625 C 22.21875 -0.546875 21.671875 0 20.578125 0 Z M 20.578125 0 "/></g></g></g><g fill="#1a2d49" fill-opacity="1"><g transform="translate(126.980271, 82.394494)"><g><path d="M 20.890625 0 L 7.75 0 C 6.65625 0 6.109375 -0.546875 6.109375 -1.640625 L 6.109375 -60.078125 C 6.109375 -61.171875 6.65625 -61.71875 7.75 -61.71875 L 20.890625 -61.71875 C 21.992188 -61.71875 22.546875 -61.171875 22.546875 -60.078125 L 22.546875 -1.640625 C 22.546875 -0.546875 21.992188 0 20.890625 0 Z M 20.890625 0 "/></g></g></g><g fill="#1a2d49" fill-opacity="1"><g transform="translate(209.117625, 82.394494)"><g><path d="M 41.15625 0 L 7.75 0 C 6.65625 0 6.109375 -0.546875 6.109375 -1.640625 L 6.109375 -60.078125 C 6.109375 -61.171875 6.65625 -61.71875 7.75 -61.71875 L 20.890625 -61.71875 C 21.992188 -61.71875 22.546875 -61.171875 22.546875 -60.078125 L 22.546875 -13.984375 L 41.15625 -13.984375 C 42.25 -13.984375 42.796875 -13.4375 42.796875 -12.34375 L 42.796875 -1.640625 C 42.796875 -0.546875 42.25 0 41.15625 0 Z M 41.15625 0 "/></g></g></g><g fill="#1a2d49" fill-opacity="1"><g transform="translate(307.124306, 82.394494)"><g><path d="M 28.40625 0 L 7.75 0 C 6.65625 0 6.109375 -0.546875 6.109375 -1.640625 L 6.109375 -60.078125 C 6.109375 -61.171875 6.65625 -61.71875 7.75 -61.71875 L 28.40625 -61.71875 C 36.125 -61.71875 42.457031 -60.5 47.40625 -58.0625 C 52.363281 -55.625 56.039062 -52.097656 58.4375 -47.484375 C 60.84375 -42.878906 62.046875 -37.3125 62.046875 -30.78125 C 62.046875 -24.375 60.863281 -18.867188 58.5 -14.265625 C 56.144531 -9.660156 52.492188 -6.128906 47.546875 -3.671875 C 42.609375 -1.222656 36.226562 0 28.40625 0 Z M 22.703125 -47.734375 L 22.703125 -13.984375 L 28.484375 -13.984375 C 34.273438 -13.984375 38.578125 -15.488281 41.390625 -18.5 C 44.203125 -21.519531 45.609375 -25.691406 45.609375 -31.015625 C 45.609375 -36.378906 44.203125 -40.503906 41.390625 -43.390625 C 38.578125 -46.285156 34.273438 -47.734375 28.484375 -47.734375 Z M 22.703125 -47.734375 "/></g></g></g><g fill="#1a2d49" fill-opacity="1"><g transform="translate(426.424019, 82.394494)"><g/></g></g><g fill="#1a2d49" fill-opacity="1"><g transform="translate(506.231206, 82.394494)"><g><path d="M 30.625 0 L 17.359375 0 C 16.265625 0 15.71875 -0.546875 15.71875 -1.640625 L 15.71875 -47.734375 L 3.296875 -47.734375 C 2.191406 -47.734375 1.640625 -48.285156 1.640625 -49.390625 L 1.640625 -60.078125 C 1.640625 -61.171875 2.191406 -61.71875 3.296875 -61.71875 L 44.6875 -61.71875 C 45.78125 -61.71875 46.328125 -61.171875 46.328125 -60.078125 L 46.328125 -49.390625 C 46.328125 -48.285156 45.78125 -47.734375 44.6875 -47.734375 L 32.265625 -47.734375 L 32.265625 -1.640625 C 32.265625 -0.546875 31.71875 0 30.625 0 Z M 30.625 0 "/></g></g></g><g fill="#1a2d49" fill-opacity="1"><g transform="translate(607.77332, 82.394494)"><g><path d="M 46.171875 0 L 7.75 0 C 6.65625 0 6.109375 -0.546875 6.109375 -1.640625 L 6.109375 -60.078125 C 6.109375 -61.171875 6.65625 -61.71875 7.75 -61.71875 L 46.171875 -61.71875 C 47.265625 -61.71875 47.8125 -61.171875 47.8125 -60.078125 L 47.8125 -49.390625 C 47.8125 -48.285156 47.265625 -47.734375 46.171875 -47.734375 L 22.546875 -47.734375 L 22.546875 -34.390625 L 42.953125 -34.390625 C 44.054688 -34.390625 44.609375 -33.84375 44.609375 -32.75 L 44.609375 -22.859375 C 44.609375 -21.765625 44.054688 -21.21875 42.953125 -21.21875 L 22.546875 -21.21875 L 22.546875 -13.984375 L 46.171875 -13.984375 C 47.265625 -13.984375 47.8125 -13.4375 47.8125 -12.34375 L 47.8125 -1.640625 C 47.8125 -0.546875 47.265625 0 46.171875 0 Z M 46.171875 0 "/></g></g></g><g fill="#1a2d49" fill-opacity="1"><g transform="translate(713.774925, 82.394494)"><g><path d="M 37.046875 1.640625 C 32.035156 1.640625 27.472656 0.882812 23.359375 -0.625 C 19.253906 -2.132812 15.734375 -4.304688 12.796875 -7.140625 C 9.867188 -9.984375 7.601562 -13.40625 6 -17.40625 C 4.40625 -21.414062 3.609375 -25.898438 3.609375 -30.859375 C 3.609375 -35.816406 4.40625 -40.296875 6 -44.296875 C 7.601562 -48.304688 9.867188 -51.726562 12.796875 -54.5625 C 15.734375 -57.40625 19.253906 -59.582031 23.359375 -61.09375 C 27.472656 -62.613281 32.035156 -63.375 37.046875 -63.375 C 42.890625 -63.375 48.117188 -62.34375 52.734375 -60.28125 C 57.359375 -58.21875 61.144531 -55.347656 64.09375 -51.671875 C 64.789062 -50.867188 64.65625 -50.132812 63.6875 -49.46875 L 52.84375 -42.234375 C 52.007812 -41.640625 51.269531 -41.773438 50.625 -42.640625 C 49.101562 -44.484375 47.191406 -45.925781 44.890625 -46.96875 C 42.585938 -48.019531 39.972656 -48.546875 37.046875 -48.546875 C 33.648438 -48.546875 30.675781 -47.828125 28.125 -46.390625 C 25.582031 -44.960938 23.609375 -42.925781 22.203125 -40.28125 C 20.796875 -37.644531 20.09375 -34.503906 20.09375 -30.859375 C 20.09375 -27.210938 20.796875 -24.070312 22.203125 -21.4375 C 23.609375 -18.800781 25.582031 -16.765625 28.125 -15.328125 C 30.675781 -13.898438 33.648438 -13.1875 37.046875 -13.1875 C 39.972656 -13.1875 42.585938 -13.707031 44.890625 -14.75 C 47.191406 -15.789062 49.101562 -17.238281 50.625 -19.09375 C 51.269531 -19.945312 52.007812 -20.078125 52.84375 -19.484375 L 63.6875 -12.25 C 64.65625 -11.582031 64.84375 -10.898438 64.25 -10.203125 C 61.332031 -6.503906 57.550781 -3.601562 52.90625 -1.5 C 48.257812 0.59375 42.972656 1.640625 37.046875 1.640625 Z M 37.046875 1.640625 "/></g></g></g><g fill="#1a2d49" fill-opacity="1"><g transform="translate(834.480789, 82.394494)"><g><path d="M 20.890625 0 L 7.75 0 C 6.65625 0 6.109375 -0.546875 6.109375 -1.640625 L 6.109375 -60.078125 C 6.109375 -61.171875 6.65625 -61.71875 7.75 -61.71875 L 20.890625 -61.71875 C 21.992188 -61.71875 22.546875 -61.171875 22.546875 -60.078125 L 22.546875 -34.796875 L 44.125 -34.796875 L 44.125 -60.078125 C 44.125 -61.171875 44.671875 -61.71875 45.765625 -61.71875 L 58.90625 -61.71875 C 60.007812 -61.71875 60.5625 -61.171875 60.5625 -60.078125 L 60.5625 -1.640625 C 60.5625 -0.546875 60.007812 0 58.90625 0 L 45.765625 0 C 44.671875 0 44.125 -0.546875 44.125 -1.640625 L 44.125 -20.8125 L 22.546875 -20.8125 L 22.546875 -1.640625 C 22.546875 -0.546875 21.992188 0 20.890625 0 Z M 20.890625 0 "/></g></g></g></g></g><g clip-path="url(#5d8fe3f0f5)"><path fill="#1a2d49" d="M 338.277344 287.273438 L 263.847656 287.273438 L 226.554688 351.863281 L 263.847656 416.316406 L 338.277344 416.316406 L 375.5625 351.863281 L 338.277344 287.273438 " fill-opacity="1" fill-rule="nonzero"/></g><g clip-path="url(#7b8460e1ba)"><path fill="#f0b429" d="M 500.992188 311.117188 L 501.003906 311.113281 L 498.492188 306.765625 L 487.285156 287.273438 L 487.230469 287.273438 L 437.101562 200.5 L 437.09375 200.511719 L 412.710938 158.363281 L 338.277344 158.363281 L 300.988281 222.820312 L 326.085938 266.199219 L 326.078125 266.199219 L 387.507812 372.59375 L 412.710938 416.316406 L 487.285156 416.316406 L 524.429688 351.863281 L 500.992188 311.117188 " fill-opacity="1" fill-rule="nonzero"/></g><g clip-path="url(#f92659818e)"><path fill="#1a2d49" d="M 648.105469 307.984375 L 648.207031 307.921875 L 584.445312 197.3125 L 584.300781 197.402344 L 561.71875 158.363281 L 487.285156 158.363281 L 449.996094 222.820312 L 487.285156 287.273438 L 487.304688 287.273438 L 524.542969 351.671875 L 524.429688 351.863281 L 561.71875 416.316406 L 636.148438 416.316406 L 673.433594 351.863281 L 648.105469 307.984375 " fill-opacity="1" fill-rule="nonzero"/></g></svg>